# xmcd CD database file
#
# Track frame offsets:
#	150
#	8862
#	23958
#	43748
#	61825
#	72612
#	82140
#	110235
#	120442
#	131705
#
# Disc length: 1960 seconds
#
# Revision: 0
# Processed by: cddbd v1.5.2PL0 Copyright (c) Steve Scherf et al.
# Submitted via: Feurio! 1.68 - http://www.feurio.com
#
DISCID=9007a60a
DTITLE=Johnny Cash - At San Quentin
DYEAR=1900
DGENRE=
TTITLE0=Big River
TTITLE1=Darlin' Companion
TTITLE2=Folsom Prison Blues
TTITLE3=He Turned The Water Into Wine
TTITLE4=I Don't Know Where I'm Bound
TTITLE5=Ring Of Fire
TTITLE6=Starkville City Jail
TTITLE7=The Old Account Was Settled Long Ago
TTITLE8=There'll Be (Peace In The Valley)
TTITLE9=Wanted Man
EXTD=
EXTT0=
EXTT1=
EXTT2=
EXTT3=
EXTT4=
EXTT5=
EXTT6=
EXTT7=
EXTT8=
EXTT9=
PLAYORDER=
